<svg width="20" height="18" viewBox="0 0 20 18" fill="none" xmlns="http://www.w3.org/2000/svg">
<path fill-rule="evenodd" clip-rule="evenodd" d="M9.99998 0.580933C9.57031 0.580933 9.14789 0.691673 8.77348 0.902467C8.39907 1.11326 8.0853 1.41699 7.86247 1.78436L0.801754 13.5717L0.794985 13.5832C0.576695 13.9612 0.461193 14.3898 0.459971 14.8263C0.458748 15.2628 0.571848 15.6921 0.788018 16.0713C1.00419 16.4506 1.31589 16.7666 1.69212 16.988C2.06834 17.2094 2.49598 17.3284 2.93248 17.3332L17.0583 17.3333L17.0675 17.3332C17.504 17.3284 17.9316 17.2094 18.3078 16.988C18.6841 16.7666 18.9958 16.4506 19.2119 16.0713C19.4281 15.6921 19.5412 15.2628 19.54 14.8263C19.5388 14.3898 19.4233 13.9612 19.205 13.5832L19.1982 13.5717L12.1399 1.78832L12.1375 1.78436C11.9146 1.417 11.6009 1.11326 11.2265 0.902467C10.8521 0.691673 10.4296 0.580933 9.99998 0.580933ZM9.99992 5.77079C10.4026 5.77079 10.7291 6.09725 10.7291 6.49996V9.83329C10.7291 10.236 10.4026 10.5625 9.99992 10.5625C9.59721 10.5625 9.27075 10.236 9.27075 9.83329V6.49996C9.27075 6.09725 9.59721 5.77079 9.99992 5.77079ZM9.16659 13.1666C9.16659 12.7064 9.53968 12.3333 9.99992 12.3333H10.0087C10.4689 12.3333 10.842 12.7064 10.842 13.1666C10.842 13.6269 10.4689 14 10.0087 14H9.99992C9.53968 14 9.16659 13.6269 9.16659 13.1666Z" fill="black"/>
</svg>
