<svg width="18" height="18" viewBox="0 0 18 18" fill="none" xmlns="http://www.w3.org/2000/svg">
<path fill-rule="evenodd" clip-rule="evenodd" d="M3.1665 0.666748C1.78579 0.666748 0.666504 1.78604 0.666504 3.16675V14.8334C0.666504 16.2141 1.78579 17.3334 3.1665 17.3334H14.8332C16.2139 17.3334 17.3332 16.2141 17.3332 14.8334V3.16675C17.3332 1.78604 16.2139 0.666748 14.8332 0.666748H3.1665ZM3.99984 4.93758C3.59713 4.93758 3.27067 5.26404 3.27067 5.66675C3.27067 6.06946 3.59713 6.39591 3.99984 6.39591H13.9999C14.4026 6.39591 14.729 6.06946 14.729 5.66675C14.729 5.26404 14.4026 4.93758 13.9999 4.93758H3.99984ZM3.99984 8.27091C3.59713 8.27091 3.27067 8.59737 3.27067 9.00008C3.27067 9.40279 3.59713 9.72925 3.99984 9.72925H10.6665C11.0692 9.72925 11.3957 9.40279 11.3957 9.00008C11.3957 8.59737 11.0692 8.27091 10.6665 8.27091H3.99984ZM3.99984 11.6042C3.59713 11.6042 3.27067 11.9307 3.27067 12.3334C3.27067 12.7361 3.59713 13.0626 3.99984 13.0626H12.3332C12.7359 13.0626 13.0623 12.7361 13.0623 12.3334C13.0623 11.9307 12.7359 11.6042 12.3332 11.6042H3.99984Z" fill="#212121"/>
</svg>
