<svg width="18" height="18" viewBox="0 0 18 18" fill="none" xmlns="http://www.w3.org/2000/svg">
<path fill-rule="evenodd" clip-rule="evenodd" d="M3.1665 0.666748C1.78579 0.666748 0.666504 1.78604 0.666504 3.16675V14.8334C0.666504 16.2141 1.78579 17.3334 3.1665 17.3334H14.8332C16.2139 17.3334 17.3332 16.2141 17.3332 14.8334V3.16675C17.3332 1.78604 16.2139 0.666748 14.8332 0.666748H3.1665ZM13.0623 8.16675C13.0623 7.76404 12.7359 7.43758 12.3332 7.43758C11.9305 7.43758 11.604 7.76404 11.604 8.16675V13.1667C11.604 13.5695 11.9305 13.8959 12.3332 13.8959C12.7359 13.8959 13.0623 13.5695 13.0623 13.1667V8.16675ZM8.99984 4.10425C9.40255 4.10425 9.729 4.43071 9.729 4.83342V13.1667C9.729 13.5695 9.40255 13.8959 8.99984 13.8959C8.59713 13.8959 8.27067 13.5695 8.27067 13.1667V4.83342C8.27067 4.43071 8.59713 4.10425 8.99984 4.10425ZM6.39567 11.5001C6.39567 11.0974 6.06921 10.7709 5.6665 10.7709C5.2638 10.7709 4.93734 11.0974 4.93734 11.5001V13.1667C4.93734 13.5695 5.2638 13.8959 5.6665 13.8959C6.06921 13.8959 6.39567 13.5695 6.39567 13.1667V11.5001Z" fill="#212121"/>
</svg>
