<svg width="20" height="19" viewBox="0 0 20 19" fill="none" xmlns="http://www.w3.org/2000/svg">
<path fill-rule="evenodd" clip-rule="evenodd" d="M8.3335 0.833374C7.67045 0.833374 7.03457 1.09677 6.56573 1.56561C6.09689 2.03445 5.8335 2.67033 5.8335 3.33337V5.00004H2.66683C1.65431 5.00004 0.833496 5.85283 0.833496 6.9048V16.4286C0.833496 17.4806 1.65431 18.3334 2.66683 18.3334H17.3335C18.346 18.3334 19.1668 17.4806 19.1668 16.4286V6.9048C19.1668 5.85283 18.346 5.00004 17.3335 5.00004H14.1668V3.33337C14.1668 2.67033 13.9034 2.03445 13.4346 1.56561C12.9658 1.09677 12.3299 0.833374 11.6668 0.833374H8.3335ZM12.5002 5.00004H14.1668V17.4978V18.3311H12.5002V17.4978V5.00004ZM12.5002 5.00004H7.50016V3.33337C7.50016 3.11236 7.58796 2.9004 7.74424 2.74412C7.90052 2.58784 8.11248 2.50004 8.3335 2.50004H11.6668C11.8878 2.50004 12.0998 2.58784 12.2561 2.74412C12.4124 2.9004 12.5002 3.11236 12.5002 3.33337V5.00004ZM7.50016 5.00004V17.4978V18.3311H5.8335V17.4978V5.00004H7.50016Z" fill="black"/>
</svg>
