<svg width="18" height="20" viewBox="0 0 18 20" fill="none" xmlns="http://www.w3.org/2000/svg">
<path fill-rule="evenodd" clip-rule="evenodd" d="M13.1666 1.66659C13.1666 1.20635 12.7935 0.833252 12.3333 0.833252C11.8731 0.833252 11.5 1.20635 11.5 1.66659V3.33325H6.49996V1.66659C6.49996 1.20635 6.12686 0.833252 5.66663 0.833252C5.20639 0.833252 4.83329 1.20635 4.83329 1.66659V3.33325H2.51848C1.49573 3.33325 0.666626 4.07944 0.666626 4.99992V8.33325H0.666667C0.666667 8.33328 0.666667 8.33331 0.666667 8.33333V16.6667C0.666667 18.0474 1.78595 19.1667 3.16667 19.1667H14.8333C16.214 19.1667 17.3333 18.0474 17.3333 16.6667V8.33333C17.3333 8.33058 17.3333 8.32783 17.3333 8.32508V4.99992C17.3333 4.07944 16.5042 3.33325 15.4814 3.33325H13.1666V1.66659ZM15.6667 8.33325H2.33333C2.33333 8.33328 2.33333 8.33331 2.33333 8.33333V16.6667C2.33333 17.1269 2.70643 17.5 3.16667 17.5H14.8333C15.2936 17.5 15.6667 17.1269 15.6667 16.6667V8.33333C15.6667 8.33331 15.6667 8.33328 15.6667 8.33325ZM13.1666 3.33325V4.99992C13.1666 5.46016 12.7935 5.83325 12.3333 5.83325C11.8731 5.83325 11.5 5.46016 11.5 4.99992V3.33325H13.1666ZM4.83329 3.33325V4.99992C4.83329 5.46016 5.20639 5.83325 5.66663 5.83325C6.12686 5.83325 6.49996 5.46016 6.49996 4.99992V3.33325H4.83329Z" fill="#212121"/>
</svg>
