<svg width="19" height="19" viewBox="0 0 19 19" fill="none" xmlns="http://www.w3.org/2000/svg">
<path fill-rule="evenodd" clip-rule="evenodd" d="M9.16667 0C4.10406 0 0 4.10406 0 9.16667C0 14.2293 4.10406 18.3333 9.16667 18.3333C14.2293 18.3333 18.3333 14.2293 18.3333 9.16667C18.3333 4.10406 14.2293 0 9.16667 0ZM13.8486 7.18218C14.1334 6.89743 14.1334 6.43574 13.8486 6.15099C13.5638 5.86623 13.1022 5.86623 12.8174 6.15099L8.33301 10.6354L6.34861 8.65099C6.06385 8.36623 5.60217 8.36623 5.31741 8.65099C5.03265 8.93574 5.03265 9.39743 5.31741 9.68218L7.81741 12.1822C8.10217 12.4669 8.56385 12.4669 8.84861 12.1822L13.8486 7.18218Z" fill="#212121"/>
</svg>
