<svg width="20" height="20" viewBox="0 0 20 20" fill="none" xmlns="http://www.w3.org/2000/svg">
<path fill-rule="evenodd" clip-rule="evenodd" d="M10.0002 0.833374C4.93755 0.833374 0.833496 4.93743 0.833496 10C0.833496 15.0627 4.93755 19.1667 10.0002 19.1667C15.0628 19.1667 19.1668 15.0627 19.1668 10C19.1668 4.93743 15.0628 0.833374 10.0002 0.833374ZM10.8333 4.90743C10.8333 4.44719 10.4602 4.0741 10 4.0741C9.53976 4.0741 9.16667 4.44719 9.16667 4.90743V10.4074C9.16667 10.7231 9.345 11.0116 9.62732 11.1528L13.294 12.9861C13.7056 13.1919 14.2062 13.0251 14.412 12.6134C14.6178 12.2018 14.451 11.7012 14.0393 11.4954L10.8333 9.8924V4.90743Z" fill="black"/>
</svg>
