<svg width="16" height="19" viewBox="0 0 16 19" fill="none" xmlns="http://www.w3.org/2000/svg">
<path fill-rule="evenodd" clip-rule="evenodd" d="M15.0833 11.555V2.19877C15.0833 1.73416 14.5871 1.41661 14.1489 1.5711C13.4705 1.81029 12.5061 2.07292 11.5417 2.07292C9.77083 2.07292 8 1.1875 8 1.1875C8 1.1875 6.22917 0.302083 4.45833 0.302083C2.95583 0.302083 1.45332 0.939502 1.03248 1.13267C0.960765 1.16559 0.916667 1.23735 0.916667 1.31626V1.73338C0.909173 1.77831 0.905273 1.82445 0.905273 1.8715V17.3235C0.905273 17.7837 1.27837 18.1568 1.73861 18.1568C2.19884 18.1568 2.57194 17.7837 2.57194 17.3235L2.57194 11.2039C3.13982 11.0498 3.79908 10.9271 4.45833 10.9271C6.22917 10.9271 8 11.8125 8 11.8125C8 11.8125 9.77083 12.6979 11.5417 12.6979C12.9268 12.6979 14.3119 12.1562 14.8496 11.9202C14.9941 11.8568 15.0833 11.7128 15.0833 11.555Z" fill="black"/>
</svg>
