<svg width="20" height="20" viewBox="0 0 20 20" fill="none" xmlns="http://www.w3.org/2000/svg">
<path fill-rule="evenodd" clip-rule="evenodd" d="M10.0002 0.833252C4.93755 0.833252 0.833496 4.93731 0.833496 9.99992C0.833496 15.0625 4.93755 19.1666 10.0002 19.1666C15.0628 19.1666 19.1668 15.0625 19.1668 9.99992C19.1668 4.93731 15.0628 0.833252 10.0002 0.833252ZM9.16649 6.33336C9.16649 5.87312 9.53958 5.50002 9.99982 5.50002H10.009C10.4692 5.50002 10.8423 5.87312 10.8423 6.33336C10.8423 6.79359 10.4692 7.16669 10.009 7.16669H9.99982C9.53958 7.16669 9.16649 6.79359 9.16649 6.33336ZM9.9993 9.27094C10.402 9.27094 10.7285 9.5974 10.7285 10.0001V13.6668C10.7285 14.0695 10.402 14.3959 9.9993 14.3959C9.59659 14.3959 9.27013 14.0695 9.27013 13.6668V10.0001C9.27013 9.5974 9.59659 9.27094 9.9993 9.27094Z" fill="#9E9E9E"/>
</svg>
