<svg width="18" height="18" viewBox="0 0 18 18" fill="none" xmlns="http://www.w3.org/2000/svg">
<path fill-rule="evenodd" clip-rule="evenodd" d="M17.0894 9.58922C17.4149 9.26378 17.4149 8.73614 17.0894 8.4107L12.9228 4.24404C12.5973 3.9186 12.0697 3.9186 11.7442 4.24404C11.4188 4.56947 11.4188 5.09711 11.7442 5.42255L14.4883 8.16663L7.3335 8.16663L7.3335 1.49996C7.3335 1.03972 6.9604 0.666626 6.50016 0.666626L3.16683 0.666625C2.50379 0.666625 1.8679 0.930017 1.39906 1.39886C0.930222 1.8677 0.666828 2.50358 0.666828 3.16663L0.666828 14.8333C0.666828 15.4963 0.930221 16.1322 1.39906 16.6011C1.8679 17.0699 2.50379 17.3333 3.16683 17.3333L6.50016 17.3333C6.9604 17.3333 7.3335 16.9602 7.3335 16.5L7.3335 9.83329L14.4883 9.83329L11.7442 12.5774C11.4188 12.9028 11.4188 13.4304 11.7442 13.7559C12.0697 14.0813 12.5973 14.0813 12.9228 13.7559L17.0894 9.58922Z" fill="#FF4040"/>
</svg>
