<svg width="18" height="18" viewBox="0 0 18 18" fill="none" xmlns="http://www.w3.org/2000/svg">
<path fill-rule="evenodd" clip-rule="evenodd" d="M2.33366 8.16663C2.33366 4.94496 4.94533 2.33329 8.16699 2.33329C11.3887 2.33329 14.0003 4.94496 14.0003 8.16663C14.0003 9.73817 13.3789 11.1646 12.3683 12.2135C12.3397 12.2354 12.3122 12.2595 12.286 12.2857C12.2598 12.3119 12.2357 12.3394 12.2137 12.368C11.1648 13.3785 9.73849 14 8.16699 14C4.94533 14 2.33366 11.3883 2.33366 8.16663ZM12.8483 14.0266C11.5653 15.0529 9.93781 15.6666 8.16699 15.6666C4.02486 15.6666 0.666992 12.3088 0.666992 8.16663C0.666992 4.02449 4.02486 0.666626 8.16699 0.666626C12.3091 0.666626 15.667 4.02449 15.667 8.16663C15.667 9.9375 15.0532 11.565 14.0269 12.8481L17.0895 15.9107C17.4149 16.2362 17.4149 16.7638 17.0895 17.0892C16.7641 17.4147 16.2364 17.4147 15.911 17.0892L12.8483 14.0266Z" fill="black"/>
</svg>
