<svg width="18" height="20" viewBox="0 0 18 20" fill="none" xmlns="http://www.w3.org/2000/svg">
<path fill-rule="evenodd" clip-rule="evenodd" d="M6.74416 2.744C6.90044 2.58772 7.1124 2.49992 7.33341 2.49992H10.6667C10.8878 2.49992 11.0997 2.58772 11.256 2.744C11.4123 2.90028 11.5001 3.11224 11.5001 3.33325V4.16659H6.50008V3.33325C6.50008 3.11224 6.58788 2.90028 6.74416 2.744ZM4.83341 4.16659V3.33325C4.83341 2.67021 5.09681 2.03433 5.56565 1.56548C6.03449 1.09664 6.67037 0.833252 7.33341 0.833252H10.6667C11.3298 0.833252 11.9657 1.09664 12.4345 1.56548C12.9034 2.03433 13.1667 2.67021 13.1667 3.33325V4.16659H14.8334H16.5001C16.9603 4.16659 17.3334 4.53968 17.3334 4.99992C17.3334 5.46016 16.9603 5.83325 16.5001 5.83325H15.6667V16.6666C15.6667 17.3296 15.4034 17.9655 14.9345 18.4344C14.4657 18.9032 13.8298 19.1666 13.1667 19.1666H4.83342C4.17037 19.1666 3.53449 18.9032 3.06565 18.4344C2.59681 17.9655 2.33341 17.3296 2.33341 16.6666V5.83325H1.50008C1.03984 5.83325 0.666748 5.46016 0.666748 4.99992C0.666748 4.53968 1.03984 4.16659 1.50008 4.16659H3.16675H4.83341Z" fill="#9E9E9E"/>
</svg>
