<svg width="21" height="20" viewBox="0 0 21 20" fill="none" xmlns="http://www.w3.org/2000/svg">
<path d="M11.4688 1.28125C11.4688 0.746224 11.035 0.3125 10.5 0.3125C9.96497 0.3125 9.53125 0.746224 9.53125 1.28125V9.03125H1.78125C1.24622 9.03125 0.8125 9.46497 0.8125 10C0.8125 10.535 1.24622 10.9688 1.78125 10.9688H9.53125V18.7188C9.53125 19.2538 9.96497 19.6875 10.5 19.6875C11.035 19.6875 11.4688 19.2538 11.4688 18.7188V10.9688H19.2188C19.7538 10.9688 20.1875 10.535 20.1875 10C20.1875 9.46497 19.7538 9.03125 19.2188 9.03125H11.4688V1.28125Z" fill="#FAFAFA"/>
</svg>
