<svg width="30" height="28" viewBox="0 0 30 28" fill="none" xmlns="http://www.w3.org/2000/svg">
<path d="M11.2529 9.3125C11.2529 10.8658 9.99373 12.125 8.44043 12.125C6.88713 12.125 5.62793 10.8658 5.62793 9.3125C5.62793 7.7592 6.88713 6.5 8.44043 6.5C9.99373 6.5 11.2529 7.7592 11.2529 9.3125Z" fill="#616161"/>
<path d="M3.75293 0.875C1.68186 0.875 0.00292969 2.55393 0.00292969 4.625V23.375C0.00292969 25.4461 1.68186 27.125 3.75293 27.125H26.2529C28.324 27.125 30.0029 25.4461 30.0029 23.375V4.625C30.0029 2.55393 28.324 0.875 26.2529 0.875H3.75293ZM26.2529 2.75C27.2885 2.75 28.1279 3.58947 28.1279 4.625V16.8125L21.0472 13.1615C20.6863 12.981 20.2504 13.0518 19.965 13.3371L13.0085 20.2937L8.02296 16.97C7.65113 16.7221 7.15601 16.7711 6.84002 17.0871L1.87793 21.5V4.625C1.87793 3.58947 2.7174 2.75 3.75293 2.75H26.2529Z" fill="#616161"/>
</svg>
