<svg width="20" height="16" viewBox="0 0 20 16" fill="none" xmlns="http://www.w3.org/2000/svg">
<path fill-rule="evenodd" clip-rule="evenodd" d="M8.33337 8C10.4044 8 12.0834 6.32107 12.0834 4.25C12.0834 2.17893 10.4044 0.5 8.33337 0.5C6.26231 0.5 4.58337 2.17893 4.58337 4.25C4.58337 6.32107 6.26231 8 8.33337 8ZM15.8334 15.5V13.5556C15.8334 12.5242 15.4383 11.535 14.735 10.8057C14.0318 10.0764 13.0779 9.66667 12.0834 9.66667H4.58337C3.58881 9.66667 2.63498 10.0764 1.93172 10.8057C1.22846 11.535 0.833374 12.5242 0.833374 13.5556V15.5H15.8334ZM13.239 1.50838C13.6026 1.22617 14.1261 1.29213 14.4083 1.65569C14.9756 2.38653 15.2835 3.2854 15.2835 4.21057C15.2835 5.13575 14.9756 6.03462 14.4083 6.76546C14.1261 7.12902 13.6026 7.19498 13.239 6.91277C12.8755 6.63057 12.8095 6.10707 13.0917 5.74351C13.4321 5.305 13.6168 4.76568 13.6168 4.21057C13.6168 3.65547 13.4321 3.11615 13.0917 2.67764C12.8095 2.31408 12.8755 1.79058 13.239 1.50838ZM16.1798 9.28265C16.502 8.95401 17.0297 8.94879 17.3583 9.27099C17.9174 9.8191 18.3615 10.5436 18.6659 11.2503C18.9677 11.9509 19.1665 12.7141 19.1665 13.3631V14.7913C19.1665 15.2516 18.7934 15.6247 18.3332 15.6247C17.8729 15.6247 17.4998 15.2516 17.4998 14.7913V13.3631C17.4998 13.0139 17.3816 12.4816 17.1352 11.9097C16.8915 11.3439 16.5565 10.819 16.1915 10.4611C15.8629 10.1389 15.8576 9.6113 16.1798 9.28265Z" fill="#212121"/>
</svg>
