<svg width="19" height="19" viewBox="0 0 19 19" fill="none" xmlns="http://www.w3.org/2000/svg">
<path fill-rule="evenodd" clip-rule="evenodd" d="M9.16667 0C4.10406 0 0 4.10406 0 9.16667C0 14.2293 4.10406 18.3333 9.16667 18.3333C14.2293 18.3333 18.3333 14.2293 18.3333 9.16667C18.3333 4.10406 14.2293 0 9.16667 0ZM7.18194 6.15099C6.89718 5.86623 6.4355 5.86623 6.15074 6.15099C5.86599 6.43574 5.86599 6.89743 6.15074 7.18218L8.13514 9.16658L6.15074 11.151C5.86599 11.4357 5.86599 11.8974 6.15074 12.1822C6.4355 12.4669 6.89718 12.4669 7.18194 12.1822L9.16634 10.1978L11.1507 12.1822C11.4355 12.4669 11.8972 12.4669 12.1819 12.1822C12.4667 11.8974 12.4667 11.4357 12.1819 11.151L10.1975 9.16658L12.1819 7.18218C12.4667 6.89743 12.4667 6.43574 12.1819 6.15099C11.8972 5.86623 11.4355 5.86623 11.1507 6.15099L9.16634 8.13539L7.18194 6.15099Z" fill="#212121"/>
</svg>
